<svg preserveAspectRatio="none" overflow="visible" style="display: block;" width="16" height="16" viewBox="0 0 16 16" fill="none" xmlns="http://www.w3.org/2000/svg">
<path id="Subtract" d="M8 0C12.4183 0 16 3.58172 16 8C16 12.4183 12.4183 16 8 16C3.58172 16 0 12.4183 0 8C0 3.58172 3.58172 0 8 0ZM8.08594 6.32324C7.80505 6.32324 7.56657 6.42087 7.37109 6.61621C7.17571 6.8117 7.07812 7.05013 7.07812 7.33105V12.7812C7.07821 13.062 7.17584 13.2997 7.37109 13.4951C7.56658 13.6905 7.80501 13.7881 8.08594 13.7881C8.36666 13.788 8.60443 13.6904 8.7998 13.4951C8.99507 13.2997 9.09269 13.062 9.09277 12.7812V7.33105C9.09277 7.05013 8.99519 6.8117 8.7998 6.61621C8.60444 6.421 8.36661 6.32335 8.08594 6.32324ZM8.08594 2.46191C7.72296 2.46191 7.4123 2.58976 7.15527 2.84668C6.89835 3.10371 6.77051 3.41437 6.77051 3.77734C6.77062 4.14011 6.89848 4.45012 7.15527 4.70703C7.4123 4.96395 7.72296 5.0918 8.08594 5.0918C8.44871 5.09169 8.75871 4.96384 9.01562 4.70703C9.27244 4.45012 9.40028 4.14012 9.40039 3.77734C9.40039 3.41437 9.27255 3.10371 9.01562 2.84668C8.75871 2.58988 8.4487 2.46202 8.08594 2.46191Z" fill="#006FFF"/>
</svg>
