<svg preserveAspectRatio="none" overflow="visible" style="display: block;" width="34" height="34" viewBox="0 0 34 34" fill="none" xmlns="http://www.w3.org/2000/svg">
<g id="Frame">
<path id="Vector" d="M7.4375 26.753C7.13646 26.753 6.88417 26.6513 6.68065 26.4477C6.47688 26.244 6.375 25.9915 6.375 25.6902C6.375 25.3891 6.47688 25.1369 6.68065 24.9333C6.88417 24.73 7.13646 24.6284 7.4375 24.6284H8.93598V14.0576C8.93598 12.1524 9.52401 10.4679 10.7001 9.00398C11.8759 7.54009 13.3856 6.60379 15.2292 6.19508V5.3125C15.2292 4.82068 15.4012 4.40253 15.7452 4.05804C16.0892 3.71379 16.5069 3.54167 16.9982 3.54167C17.4898 3.54167 17.9081 3.71379 18.253 4.05804C18.5982 4.40253 18.7708 4.82068 18.7708 5.3125V6.19508C20.6144 6.60379 22.1241 7.54009 23.2999 9.00398C24.476 10.4679 25.064 12.1524 25.064 14.0576V24.6284H26.5625C26.8635 24.6284 27.1158 24.7302 27.3194 24.9337C27.5231 25.1375 27.625 25.39 27.625 25.6913C27.625 25.9923 27.5231 26.2446 27.3194 26.4481C27.1158 26.6514 26.8635 26.753 26.5625 26.753H7.4375ZM16.9975 30.7307C16.2927 30.7307 15.6902 30.4799 15.1899 29.9784C14.6893 29.4769 14.439 28.874 14.439 28.1697H19.561C19.561 28.8764 19.31 29.4799 18.808 29.9802C18.306 30.4805 17.7025 30.7307 16.9975 30.7307Z" fill="#101010"/>
</g>
</svg>
