<svg width="24" height="24" viewBox="0 0 24 24" fill="none" xmlns="http://www.w3.org/2000/svg">
<path d="M1.79785 17.0846C1.79785 16.5693 1.93085 16.1094 2.19685 15.7049C2.46285 15.3004 2.8181 14.9857 3.2626 14.7609C4.21294 14.296 5.16852 13.9376 6.12935 13.6856C7.09035 13.4338 8.14644 13.3079 9.2976 13.3079C10.4489 13.3079 11.505 13.4338 12.4659 13.6856C13.4269 13.9376 14.3825 14.296 15.3329 14.7609C15.7774 14.9857 16.1326 15.3004 16.3986 15.7049C16.6646 16.1094 16.7976 16.5693 16.7976 17.0846V17.7886C16.7976 18.1911 16.6499 18.545 16.3544 18.8501C16.0589 19.1553 15.7002 19.3079 15.2784 19.3079H3.31685C2.89518 19.3079 2.5366 19.1601 2.2411 18.8646C1.9456 18.569 1.79785 18.2103 1.79785 17.7886V17.0846ZM20.6824 19.3079H18.4111C18.5368 19.0784 18.6326 18.8341 18.6986 18.5751C18.7646 18.3161 18.7976 18.054 18.7976 17.7886V16.9616C18.7976 16.3053 18.6369 15.6797 18.3156 15.0849C17.9941 14.4902 17.5381 13.98 16.9476 13.5541C17.6181 13.6541 18.2547 13.8089 18.8574 14.0184C19.4599 14.2281 20.0349 14.4758 20.5824 14.7616C21.099 15.0373 21.498 15.3622 21.7794 15.7364C22.0607 16.1104 22.2014 16.5188 22.2014 16.9616V17.7886C22.2014 18.2103 22.0536 18.569 21.7581 18.8646C21.4626 19.1601 21.104 19.3079 20.6824 19.3079ZM6.8236 10.6664C6.13977 9.98255 5.79785 9.15788 5.79785 8.19238C5.79785 7.22705 6.13977 6.40238 6.8236 5.71838C7.5076 5.03438 8.33227 4.69238 9.2976 4.69238C10.2631 4.69238 11.0878 5.03438 11.7716 5.71838C12.4556 6.40238 12.7976 7.22705 12.7976 8.19238C12.7976 9.15788 12.4556 9.98255 11.7716 10.6664C11.0878 11.3504 10.2631 11.6924 9.2976 11.6924C8.33227 11.6924 7.5076 11.3504 6.8236 10.6664ZM16.9041 10.6664C16.2188 11.3504 15.3949 11.6924 14.4324 11.6924C14.3195 11.6924 14.1759 11.6795 14.0016 11.6539C13.8271 11.6282 13.6835 11.6 13.5709 11.5694C13.9652 11.0952 14.2683 10.5692 14.4801 9.99138C14.6918 9.41355 14.7976 8.81355 14.7976 8.19138C14.7976 7.56905 14.6896 6.9713 14.4736 6.39813C14.2576 5.82513 13.9567 5.29763 13.5709 4.81563C13.7144 4.7643 13.8579 4.73097 14.0016 4.71563C14.1451 4.70013 14.2887 4.69238 14.4324 4.69238C15.3949 4.69238 16.2188 5.03438 16.9041 5.71838C17.5894 6.40238 17.9321 7.22705 17.9321 8.19238C17.9321 9.15788 17.5894 9.98255 16.9041 10.6664ZM3.2976 17.8079H15.2976V17.0846C15.2976 16.8758 15.2454 16.69 15.1409 16.5271C15.0365 16.3643 14.8709 16.222 14.6439 16.1001C13.8209 15.6758 12.9734 15.3543 12.1016 15.1356C11.2298 14.9171 10.2951 14.8079 9.2976 14.8079C8.30027 14.8079 7.36569 14.9171 6.49385 15.1356C5.62202 15.3543 4.7746 15.6758 3.9516 16.1001C3.7246 16.222 3.55885 16.3643 3.45435 16.5271C3.34985 16.69 3.2976 16.8758 3.2976 17.0846V17.8079ZM10.7101 9.60488C11.1018 9.21322 11.2976 8.74238 11.2976 8.19238C11.2976 7.64238 11.1018 7.17155 10.7101 6.77988C10.3184 6.38822 9.8476 6.19238 9.2976 6.19238C8.7476 6.19238 8.27677 6.38822 7.8851 6.77988C7.49344 7.17155 7.2976 7.64238 7.2976 8.19238C7.2976 8.74238 7.49344 9.21322 7.8851 9.60488C8.27677 9.99655 8.7476 10.1924 9.2976 10.1924C9.8476 10.1924 10.3184 9.99655 10.7101 9.60488Z" fill="#101010"/>
</svg>
